<svg xmlns="http://www.w3.org/2000/svg" version="1.1" xmlns:xlink="http://www.w3.org/1999/xlink" xmlns:svgjs="http://svgjs.com/svgjs" width="1440" height="560" preserveAspectRatio="none" viewBox="0 0 1440 560"><g mask="url(&quot;#SvgjsMask1020&quot;)" fill="none"><rect width="1440" height="560" x="0" y="0" fill="rgba(251, 246, 241, 1)"></rect><path d="M 0,61 C 72,78.2 216,146 360,147 C 504,148 576,62.4 720,66 C 864,69.6 936,176 1080,165 C 1224,154 1368,41.8 1440,11L1440 560L0 560z" fill="rgba(204, 102, 0, 1)"></path><path d="M 0,435 C 96,414.8 288,326 480,334 C 672,342 768,484 960,475 C 1152,466 1344,326.2 1440,289L1440 560L0 560z" fill="rgba(255, 127, 0, 1)"></path></g><defs><mask id="SvgjsMask1020"><rect width="1440" height="560" fill="#ffffff"></rect></mask></defs></svg>