<svg id="Livello_1" data-name="Livello 1" xmlns="http://www.w3.org/2000/svg" viewBox="0 0 1440 560"><defs><style>.cls-1{fill:#ff7f00;}.cls-2{fill:#ff9f40;}.cls-3{fill:#bf5f00;}</style></defs><rect class="cls-1" width="1440" height="560"/><path class="cls-2" d="M1234.29,0c-81.63,53.74-101.62,193.84-172.4,273.69-83.51,94.23-252.41,130.17-268.1,255.09a141.7,141.7,0,0,0-.48,31.22H1440V30.14C1424.2,18.68,1408.21,8.36,1391.88,0Z" transform="translate(0 0)"/><path class="cls-3" d="M1.33,388.07c9-.27,18-.63,26.84-1,62.67-2.4,123.18-14.44,179.46-42.12,21.77-10.7,95-45.91,159.38-124.5C437.82,134,458.84,43.86,466,0H0Z" transform="translate(0 0)"/><line class="cls-2" x1="1234.29" x2="1391.88"/><polyline class="cls-2" points="1440 30.14 1440 560 792.67 560"/></svg>