<svg id="Livello_1" data-name="Livello 1" xmlns="http://www.w3.org/2000/svg" xmlns:xlink="http://www.w3.org/1999/xlink" viewBox="0 0 2421.41 1528.13"><defs><style>.cls-1{fill:none;}.cls-2{clip-path:url(#clip-path);}.cls-3{fill:#ff7f00;}.cls-4{fill:#c60;}.cls-5{fill:#f93;}</style><clipPath id="clip-path" transform="translate(378.55 338.5)"><rect class="cls-1" width="1440" height="560"/></clipPath></defs><g class="cls-2"><rect class="cls-3" x="228.08" y="201.15" width="1725.65" height="896.87"/><path class="cls-4" d="M28.17,387.1c62.67-2.4,123.18-14.44,179.46-42.12,61.75-30.36,118-69.54,159.38-124.5C415.91,155.59,468,84.09,465.4,2.88,462.77-80.74,422.73-169.33,353.28-216,286-261.16,193.76-210.58,115.61-232c-76-20.88-127.69-114.9-205.95-105.84C-168-328.89-214.54-248-264.67-188-314-129-377.2-69.63-378.54,7.26-379.85,83-311.4,138.18-271.46,202.58c34.42,55.48,55.54,122.23,111.14,156.47,55.2,34,123.7,30.53,188.49,28.05" transform="translate(378.55 338.5)"/><path class="cls-5" d="M1468.17,1164.76c115.13-1.17,240.13,47.54,338.15-12.85,98.24-60.53,123.56-188.75,164.31-296.71,38.17-101.15,91.7-206.27,65.07-311.06-26-102.21-125-163.41-203.54-233.8-69.15-62-147-104.38-226.79-151.84C1496.77,93.92,1402.57-44.82,1279-18.63,1157.78,7.06,1144.06,181,1061.89,273.69c-83.51,94.23-252.41,130.17-268.1,255.09C778.05,654.17,931.42,732.16,990.3,844c54.32,103.16,38.47,249.88,135.27,314.86s226,7.11,342.6,5.92" transform="translate(378.55 338.5)"/></g></svg>