<svg id="Livello_1" data-name="Livello 1" xmlns="http://www.w3.org/2000/svg" viewBox="0 0 324.78 543.46"><path d="M152.88,375.81S142.49,410.43,147.42,497c0,0-25-77-66.61-144.51L52.47,304.69s-46.69-71.8-44.8-125c0,0-5.36-139.67,134.8-165.57a115.25,115.25,0,0,1,64.75,6.31c22.48,9.24,46.31,27.46,48.86,63.3a79.83,79.83,0,1,0-2.49,85.92c14.17-15.92,25.67-39.71,28-75.25,0,0,1.21-32.39-17.21-56.89,0,0,35,16.4,37.05,73.29,0,0,4.45,52.43-59.52,118C242,228.84,172.32,297.67,152.88,375.81Z" transform="translate(-7.61 -12.12)"/><path d="M328.2,211.43c-3.85,31-43.12,93.12-43.12,93.12l-32.19,52.64C206.33,432.9,170.7,555.58,170.7,555.58c-32-130,0-199.61,0-199.61,19.43-57.9,80.57-122.68,80.57-122.68C329,151.51,315.44,99.07,315.44,99.07,343.58,162,328.2,211.43,328.2,211.43Z" transform="translate(-7.61 -12.12)"/></svg>