<svg id="Livello_1" data-name="Livello 1" xmlns="http://www.w3.org/2000/svg" viewBox="0 0 226.29 328.58"><defs><style>.cls-1{fill:#fbf6f1;}.cls-2{fill:#ffe5cc;}.cls-3{fill:#fc9;}</style></defs><path class="cls-1" d="M231.16,79.09c-3.64,18.41-17.11,38.16-29.06,51.15-1.13,1.5-9.83,10.12-10,10.28-4.41,4.06-10.83,9.35-15,13-.61.54-3.82,3.55-4.82,3.12-1,.43-4.21-2.58-4.82-3.12-4.16-3.68-10.59-9-15-13-.22-.16-8.91-8.78-10-10.28a147.76,147.76,0,0,1-11-13.49L153.05,95.1a38.66,38.66,0,0,0,19.17,5.05h0c48.61-.86,48.6-73.16,0-74h0c-33.29.57-43.79,34.66-31.5,56.37l-18.94,19a82.28,82.28,0,0,1-8.43-22.36C103.35,42.4,131.88,2,172.25,2.3,212.62,2,241.15,42.4,231.16,79.09Z" transform="translate(-6.88 -2.3)"/><path class="cls-2" d="M86.93,198.15l18.93,18.94a81.81,81.81,0,0,1-22.19,8.34C47,235.41,6.55,206.88,6.88,166.52,6.55,126.15,47,97.62,83.67,107.61a82.1,82.1,0,0,1,22.45,8.48l-19,19c-21.71-12.35-55.84-1.86-56.43,31.45v0C31.29,199.77,65.2,210.3,86.93,198.15Z" transform="translate(-6.88 -2.3)"/><path class="cls-2" d="M161.25,166.52c.44,1-2.57,4.21-3.11,4.82-3.68,4.16-9,10.59-13,15-.16.21-8.79,8.91-10.28,10a148.25,148.25,0,0,1-13.64,11.1l-21.6-21.59a38.71,38.71,0,0,0,5.14-19.34v0a38.74,38.74,0,0,0-5-19.09l21.7-21.7a149.1,149.1,0,0,1,13.41,10.94c1.49,1.13,10.12,9.82,10.28,10,4.06,4.41,9.35,10.83,13,15C158.68,162.31,161.69,165.51,161.25,166.52Z" transform="translate(-6.88 -2.3)"/><path class="cls-3" d="M172.1,330.88c-40.37.34-68.9-40.1-58.91-76.79a82,82,0,0,1,8.4-22.28l19,19c-12.2,21.72-1.68,55.68,31.54,56.27h0c48.64-.83,48.63-73.19,0-74h0a38.68,38.68,0,0,0-19.24,5.11l-21.65-21.65a149.36,149.36,0,0,1,11-13.55c1.13-1.5,9.83-10.12,10-10.28,4.41-4.06,10.83-9.35,15-13,.61-.54,3.82-3.55,4.82-3.12,1-.43,4.21,2.58,4.82,3.12,4.16,3.68,10.59,9,15,13,.22.16,8.91,8.78,10,10.28,12,13,25.43,32.74,29.06,51.15C241,290.78,212.47,331.22,172.1,330.88Z" transform="translate(-6.88 -2.3)"/></svg>