<?xml version="1.0" encoding="utf-8"?>
<!-- Generator: Adobe Illustrator 26.0.0, SVG Export Plug-In . SVG Version: 6.00 Build 0)  -->
<svg version="1.1" id="Livello_1" xmlns="http://www.w3.org/2000/svg" xmlns:xlink="http://www.w3.org/1999/xlink" x="0px" y="0px"
	 viewBox="0 0 1440 166.5" style="enable-background:new 0 0 1440 166.5;" xml:space="preserve">
<style type="text/css">
	.st0{fill:#FF7F00;}
</style>
<path class="st0" d="M0,38.5l48,10.7c48,10.3,144,32.3,240,26.6c96-5.3,192-37.3,288-26.6c96,10.3,192,64.3,288,64
	c96,0.3,192-53.7,288-80c96-26.7,192-26.7,240-26.7h48v160h-48c-48,0-144,0-240,0s-192,0-288,0s-192,0-288,0s-192,0-288,0
	s-192,0-240,0H0V38.5z"/>
</svg>
