<svg id="Livello_1" data-name="Livello 1" xmlns="http://www.w3.org/2000/svg" xmlns:xlink="http://www.w3.org/1999/xlink" viewBox="0 0 2400.52 3886.97"><defs><style>.cls-1{fill:none;}.cls-2{clip-path:url(#clip-path);}.cls-3{fill:#fbf6f1;}.cls-4,.cls-9{fill:#ffb266;}.cls-5{fill:#f93;}.cls-6{fill:#ff7f00;}.cls-7{fill:#bf5f00;}.cls-8{fill:#fc9;}.cls-9{stroke:#fc9;stroke-miterlimit:10;stroke-width:50px;}</style><clipPath id="clip-path" transform="translate(440.95)"><rect class="cls-1" width="1920" height="5400"/></clipPath></defs><g class="cls-2"><rect class="cls-3" x="440.95" y="378.13" width="1920" height="960.26"/><path class="cls-4" d="M0,1074.89c96,24.77,287.94,122.43,480,124S768,1077,960.07,1082.13s287.94,158.46,480,142.6c191.83-15.86,383.92-177.52,479.9-221.9v791H0Z" transform="translate(440.95)"/><path class="cls-5" d="M1920,0V625l-106.7-44.5C1706.7,536,1493.3,447,1280,413.84S853.3,403.34,640,439s-426.7,84.3-533.3,108.7L0,572V0Z" transform="translate(440.95)"/><line class="cls-1" x1="2086.67" y1="1528.94" x2="2296.79" y2="1528.94"/><rect class="cls-4" x="440.95" y="1254.49" width="1925.87" height="1816.64"/><path class="cls-6" d="M1562.47,1933.93c-80.38-86.24-205.67-191.22-375-218.34-162.16-26-258.26,36.52-403.21,53.46-152.79,17.85-375.17-13.13-669.85-240.11L13.26,1709.12c294.67,227,517.06,258,669.85,240.11,144.95-16.94,241-79.44,403.21-53.46,169.3,27.12,294.58,132.1,375,218.34L1515.8,2017Z" transform="translate(440.95)"/><polygon class="cls-6" points="1279.69 1782.39 1282.18 1783.18 1334.47 1799.61 1331.86 1858.04 1300.04 1874.22 1265.08 1869.52 1255.69 1821.53 1279.69 1782.39"/><path class="cls-7" d="M0,1140c72.77,17.57,138.58,51.13,199.56,94.66,8.69,6.15,17.51,12.44,26.29,18.79.47.33,1,.69,1.42,1s.9.74,1.34,1.12c8.33,6.92,16.61,13.92,24.72,20.81,63.94,53.9,117.32,116.7,152.81,193.36,3.93,8.46,10.55,22.56,18,41.64,6.22,15.88,41.81,109.79,42.87,226.45.76,83.29,1.94,212.73-85.16,324.91s-212.8,143.12-293.67,163A637.23,637.23,0,0,1,0,2240.85" transform="translate(440.95)"/><path class="cls-6" d="M0,185l106.7-3.7c106.6-3.6,320-11,533.3-24.5s426.7-33.1,640-27S1706.7,168,1813.3,184L1920,200V0H0Z" transform="translate(440.95)"/><path class="cls-7" d="M1645.72,1263.84c-132.91,50-81.73,207.14-229.87,383.45C1271,1819.69,1078,1841.87,1058.39,2004.68a208.32,208.32,0,0,0-.64,43.74H1920V1306.07c-7.17-5.58-18-13.7-31.82-22.75,0,0-16.68-11-32.34-19.48C1828.13,1248.74,1719,1236.26,1645.72,1263.84Z" transform="translate(440.95)"/><path class="cls-7" d="M-440.87,2112.18c.44.38.9.75,1.34,1.12l-1.42-1Z" transform="translate(440.95)"/><path class="cls-7" d="M227.27,1254.49c-.47-.34-1-.7-1.42-1l.07-.09Z" transform="translate(440.95)"/><path class="cls-7" d="M228.68,1255.51l-.07.1c-.44-.38-.9-.75-1.34-1.12Z" transform="translate(440.95)"/><path class="cls-7" d="M790.93,2252.88C849.29,2315.23,912,2369.22,912,2423.33s-62.72,108.11-121.08,139.28-112.46,39.52-175.56,48.5-135,18.58-186.16-12.59-81.29-103.24-77.55-171.32,41.77-132.55,92.89-194.89S560,2109.61,619.24,2114.73s113.22,75.81,171.69,138.15" transform="translate(440.95)"/><path class="cls-7" d="M-439.53,2113.3c.47.34.94.7,1.42,1l-.07.09Z" transform="translate(440.95)"/><path class="cls-6" d="M1920,2355.45V3640.83H0V2552.06c128-27.17,384-146.81,640-136s384,202.08,640,189.86S1792,2405.51,1920,2355.45Z" transform="translate(440.95)"/><path class="cls-7" d="M1855.84,2817.58c15.66-8.54,32.34-19.49,32.35-19.49,13.77-9,24.64-17.16,31.81-22.74V2033H1057.75a208.32,208.32,0,0,0,.64,43.74c19.59,162.81,212.62,185,357.46,357.39,148.14,176.3,97,333.4,229.87,383.45C1719,2845.16,1828.13,2832.68,1855.84,2817.58Z" transform="translate(440.95)"/><path class="cls-7" d="M1259.7,1581.09c-32.4,37.26-59.74,76.52-90.86,79.73s-65.88-29.67-87.27-61.39-29.39-62.34-38.29-98.09-18.68-76.57-3.78-107.81,54.57-52.87,93.94-54.75,78.7,16.18,117.58,41.89,77.4,59.13,78,93.5-36.9,69.6-69.29,106.92" transform="translate(440.95)"/><path class="cls-8" d="M1959.57,2451.26v788h-33.7V3814.9c-96.67-24.76-290-122.42-483.48-124s-290,121.87-483.48,116.72-290-158.46-483.48-142.6C282.23,3680.93,88.76,3842.59-7.91,3887V2510.36l109.34,14.58c109.23,14.18,327.91,43.34,546.48,96.53s437.25,130.42,655.83,106.38c218.57-24.42,437.25-150.51,546.49-213.55Z" transform="translate(440.95)"/><path class="cls-9" d="M640.22,2971.3c57.86,61.86,121.2,114.23,138,183.51s-12.91,155.33-70.77,213.93-143.9,89.76-236.18,96c-92.42,6.38-190.93-12.32-246.86-70.92s-69-157.11-72.25-258.88,3.71-206.66,59.64-268.52,160.81-80.56,239.44-54.3c78.78,26.26,131.15,97.47,189,159.19" transform="translate(440.95)"/><path class="cls-9" d="M1463.63,3427.93c-83.29,14.82-167.86,40.53-246.69,14.42s-151.55-103.77-159.33-186.8,49.52-171.15,112.92-250.82,132.94-150.69,212.82-164.16,170,30.5,240.21,90.93c70.2,60.21,120.49,136.67,131.77,218.24S1738.89,3318,1684,3363.48s-137,49.52-220.36,64.45" transform="translate(440.95)"/></g></svg>